# xmcd
#
# Track frame offsets: 
#        150
#        12456
#        22881
#        32754
#        42966
#        53825
#        62865
#        72175
#        81546
#        92478
#        103129
#
# Disc length: 1509 seconds
#
# Revision: 0
# Processed by: cddbd v1.5.2PL0 Copyright (c) Steve Scherf et al.
# Submitted via: ExactAudioCopy v0.95b3
#
DISCID=8e05e30b
DTITLE=Dave Clark Five  - Glad All Over  FLAC
DYEAR=1900
DGENRE=
TTITLE0=Glad All Over
TTITLE1=All of the Time
TTITLE2=Stay
TTITLE3=Chaquita
TTITLE4=Do You Love Me
TTITLE5=Bits and Pieces
TTITLE6=I Know You
TTITLE7=No Time to Lose
TTITLE8=Doo Dah
TTITLE9=Time
TTITLE10=She's All Mine
EXTD=
EXTT0=
EXTT1=
EXTT2=
EXTT3=
EXTT4=
EXTT5=
EXTT6=
EXTT7=
EXTT8=
EXTT9=
EXTT10=
PLAYORDER=
